PathFileType	4	(X/Y/Z)	s09c0301.trc
DataRate	CameraRate	NumFrames	NumMarkers	Units	OrigDataRate	OrigDataStartFrame	OrigNumFrames
200	200	6	50	mm	200	0	2000
Frame#	Time	racr			lacr			c7			jug			rlel			rdr			llel			ldr			s2			lic			ric			lasi			rasi			rpsi			lpsi			rgt			lgt			rth1			rth2			rth3			rth4			rlfc			rmfc			rsh1			rsh2			rsh3			rsh4			rlmal			rmmal			rcal			rtoe			rmt5			lth1			lth2			lth4			lth3			llfc			lmfc			llmal			lmmal			lcal			lmt5			lsh1			lsh2			lsh3			lsh4			ltoe			SBIKE			LBIKE			RBIKE			
		X1	Y1	Z1	X2	Y2	Z2	X3	Y3	Z3	X4	Y4	Z4	X5	Y5	Z5	X6	Y6	Z6	X7	Y7	Z7	X8	Y8	Z8	X9	Y9	Z9	X10	Y10	Z10	X11	Y11	Z11	X12	Y12	Z12	X13	Y13	Z13	X14	Y14	Z14	X15	Y15	Z15	X16	Y16	Z16	X17	Y17	Z17	X18	Y18	Z18	X19	Y19	Z19	X20	Y20	Z20	X21	Y21	Z21	X22	Y22	Z22	X23	Y23	Z23	X24	Y24	Z24	X25	Y25	Z25	X26	Y26	Z26	X27	Y27	Z27	X28	Y28	Z28	X29	Y29	Z29	X30	Y30	Z30	X31	Y31	Z31	X32	Y32	Z32	X33	Y33	Z33	X34	Y34	Z34	X35	Y35	Z35	X36	Y36	Z36	X37	Y37	Z37	X38	Y38	Z38	X39	Y39	Z39	X40	Y40	Z40	X41	Y41	Z41	X42	Y42	Z42	X43	Y43	Z43	X44	Y44	Z44	X45	Y45	Z45	X46	Y46	Z46	X47	Y47	Z47	X48	Y48	Z48	X49	Y49	Z49	X50	Y50	Z50	
0	0.0000	429.030433	1237.895612	-69.558901	436.737845	1236.387705	-408.331556	406.052999	1305.632333	-242.944246	398.363803	1173.975156	-240.552317	499.974946	1026.948165	34.373174	707.157022	881.136933	-33.097085	491.716897	1009.825158	-547.116698	698.150876	880.154445	-464.703588	-60.214317	1122.773017	-229.491924	72.632578	1128.648679	-376.974757	87.484236	1121.535754	-82.868967	117.465936	1073.668063	-356.284749	130.224910	1065.781873	-104.743340	-28.901191	1155.889427	-168.705370	-33.676705	1164.205540	-277.764160	57.814398	972.458516	-40.858419	43.314017	1005.892771	-426.184584	150.974775	867.540730	-43.425194	224.188882	820.815730	-48.795008	261.162035	739.348111	-56.818282	249.570454	841.764930	-65.133746	307.854636	650.503281	-90.879931	292.212478	638.726634	-187.522925	231.996200	578.929180	-63.101033	195.963143	498.003380	-80.328281	125.454749	446.171801	-82.107762	216.494288	487.217869	-112.700920	58.923190	372.590389	-86.164815	67.897665	382.763914	-164.302896	-28.892170	363.397064	-128.102345	218.216935	270.397378	-123.557171	133.584322	281.736690	-61.105637	163.158681	937.421873	-428.925920	247.494271	924.822788	-424.311802	262.925438	956.800945	-411.024323	318.397617	868.832457	-425.343751	398.625185	807.900669	-406.768997	421.258872	799.434237	-310.001935	350.685375	448.085677	-406.580711	368.201146	458.790949	-336.926555	282.688409	411.338065	-369.630178	449.841889	366.572028	-433.349848	384.741270	708.150355	-427.333589	397.408711	622.369251	-417.338506	364.341581	540.423865	-414.721151	423.585965	622.723585	-388.643755	541.664303	384.077896	-365.741298	-65.598530	852.226313	-241.540547	21.292264	83.587710	-442.140915	21.284708	83.678823	-43.854590	
1	0.0050	428.944783	1237.903264	-69.520327	436.671677	1236.545088	-408.202706	406.002268	1305.615736	-242.885831	398.336050	1173.939153	-240.492413	499.955343	1026.910236	34.332586	707.133171	881.140265	-33.108539	491.603202	1009.831608	-546.730804	698.191801	880.147296	-464.679291	-60.291927	1122.794588	-229.451782	72.570121	1128.641941	-376.929317	87.418573	1121.563389	-82.846944	117.393792	1073.648423	-356.278325	130.191362	1065.786581	-104.711462	-28.964328	1155.937624	-168.658403	-33.738951	1164.225902	-277.718778	57.741135	972.462274	-40.813729	43.227508	1005.911744	-426.132302	150.885588	867.525775	-43.425588	224.076299	820.776159	-48.804274	261.041298	739.307113	-56.810034	249.468031	841.742960	-65.104371	307.735961	650.443872	-90.861501	292.069649	638.688201	-187.542198	231.916847	578.906556	-63.119732	195.876036	497.924479	-80.320138	125.333899	446.075184	-82.106916	216.385221	487.134182	-112.690344	58.871333	372.460718	-86.179667	67.805341	382.680401	-164.296268	-29.255751	363.516654	-128.275308	218.225156	270.381176	-123.542019	133.574889	281.672059	-61.103422	163.083006	937.468352	-428.883420	247.406480	924.890902	-424.256332	262.868960	956.850642	-410.933100	318.331843	868.898864	-425.287183	398.570170	808.002012	-406.701474	421.148544	799.505280	-309.946469	350.645215	448.162855	-406.581141	368.127489	458.854580	-336.911524	282.653262	411.388280	-369.638265	449.815275	366.653088	-433.347402	384.689337	708.246640	-427.290740	397.371080	622.462380	-417.286935	364.293229	540.506337	-414.686691	423.536785	622.796236	-388.606436	541.622979	384.163838	-365.739337	-65.592265	852.216790	-241.541389	21.296941	83.591156	-442.134722	21.278151	83.667960	-43.846808	
2	0.0100	428.854319	1237.881120	-69.486882	436.605192	1236.742409	-408.064603	405.928536	1305.590754	-242.809605	398.353935	1173.913974	-240.394360	499.917515	1026.870118	34.296230	707.135569	881.132849	-33.122558	491.462653	1009.787565	-546.296432	698.178167	880.152326	-464.610990	-60.340756	1122.818746	-229.401312	72.536763	1128.611386	-376.890321	87.368245	1121.582127	-82.818886	117.331918	1073.634886	-356.272604	130.155101	1065.787920	-104.656891	-29.028512	1155.955038	-168.621639	-33.791672	1164.242939	-277.686928	57.662618	972.466159	-40.795524	43.150681	1005.926620	-426.083448	150.785144	867.501590	-43.404350	223.959185	820.726814	-48.789430	260.906940	739.248866	-56.818820	249.359282	841.662813	-65.079642	307.594098	650.370608	-90.871847	291.937707	638.592822	-187.505426	231.829090	578.851171	-63.103874	195.786284	497.836931	-80.345213	125.258860	445.996958	-82.097180	216.308081	487.068433	-112.696950	58.812001	372.345637	-86.165277	67.655087	382.592286	-164.301633	-29.325375	363.344502	-128.276242	218.224962	270.341042	-123.557504	133.580932	281.603943	-61.103496	163.035578	937.511129	-428.830744	247.348572	924.951523	-424.193637	262.797449	956.923464	-410.901546	318.292331	868.957610	-425.244664	398.535268	808.084865	-406.659795	421.092236	799.547759	-309.919134	350.599574	448.224621	-406.568026	368.072041	458.894676	-336.913327	282.616302	411.428387	-369.634949	449.800365	366.728221	-433.333850	384.645679	708.316062	-427.250905	397.329363	622.516992	-417.237514	364.262429	540.556767	-414.679971	423.485736	622.831855	-388.561837	541.587594	384.270957	-365.752125	-65.586811	852.222203	-241.521939	21.301646	83.603291	-442.129310	21.282299	83.678781	-43.849496	
3	0.0150	428.555705	1238.492312	-69.041847	436.537428	1236.955993	-408.251551	405.898878	1305.598596	-242.739895	398.314983	1173.873682	-240.285662	499.889130	1026.807397	34.250505	707.104041	881.126150	-33.144257	491.699934	1009.814764	-545.037589	698.130987	880.152052	-464.511896	-61.190122	1124.335495	-228.881728	72.498926	1128.589594	-376.863221	87.335233	1121.590685	-82.812674	117.318419	1073.589412	-356.245575	129.935909	1065.634056	-104.569539	-29.055611	1155.978398	-168.600757	-33.146265	1163.985583	-277.363158	57.590568	972.462689	-40.763142	43.079467	1005.950329	-426.042601	150.705177	867.472155	-43.383408	224.403574	820.213727	-48.547328	260.766353	739.193434	-56.824519	249.268518	841.626777	-65.063155	307.470381	650.319758	-90.847216	291.788914	638.511994	-187.513430	232.014639	578.538300	-62.993319	195.834212	497.649605	-80.109519	125.092076	446.067658	-81.932041	216.106437	486.774519	-112.907988	58.855326	372.113108	-85.735108	67.559868	382.477491	-164.309894	-29.370170	363.191150	-128.276751	218.217369	270.205023	-123.487860	133.556681	281.533244	-61.098914	162.933189	937.470233	-428.803804	247.287380	925.000004	-424.128327	262.550654	957.377211	-410.952758	318.247961	869.008860	-425.197527	398.403424	807.909556	-406.751803	420.260042	800.785804	-308.871686	350.332931	448.696546	-406.708444	368.355420	458.685664	-337.081380	282.381094	411.522113	-369.702305	449.777140	366.798139	-433.332778	384.619798	708.378183	-427.200381	397.651650	622.567029	-417.553175	364.242523	540.612743	-414.648653	423.711387	622.871005	-388.070249	541.553832	384.357126	-365.744022	-65.593779	852.211940	-241.526213	21.294473	83.606931	-442.139459	21.281374	83.668415	-43.848464	
4	0.0200	428.430479	1238.655464	-69.180698	436.440199	1237.282350	-408.053249	405.833812	1305.561115	-242.911327	398.341097	1174.678572	-240.305118	499.642302	1027.018351	34.201683	707.139369	880.806345	-33.332731	491.374355	1009.861369	-544.626712	697.872230	880.361787	-464.588047	-61.023924	1124.130471	-228.856635	72.441226	1128.805029	-376.759204	87.201923	1121.652381	-83.071410	117.244771	1073.388830	-356.367821	129.712143	1065.764720	-104.659743	-28.869958	1155.857919	-168.711795	-33.100621	1163.948438	-277.379470	57.236190	972.706574	-40.824859	43.073391	1006.093076	-425.795450	150.463984	867.445190	-43.434386	224.148208	820.345536	-48.587860	260.429142	739.398430	-56.806090	248.880764	841.095283	-65.683402	307.173263	650.611610	-90.799057	292.055366	638.637838	-187.095373	231.537673	578.813370	-63.000334	195.678911	497.921479	-79.901168	124.731128	446.271692	-81.850514	215.957339	487.013278	-112.842320	58.669744	372.353076	-85.378913	67.578297	382.333144	-164.337773	-29.410652	362.998731	-128.251490	218.128499	270.564766	-123.275758	133.441530	281.714376	-60.981245	162.895258	937.517001	-428.768552	247.167526	925.193507	-423.920854	262.528597	957.377733	-410.909116	318.021859	869.152159	-425.174770	398.440275	807.954349	-406.839806	420.179801	800.819187	-308.788941	350.265859	448.725453	-406.662904	368.187575	458.955824	-337.157398	281.990663	411.657660	-369.834885	449.504114	367.187041	-433.593051	384.488472	708.732421	-427.317826	397.534904	622.829966	-417.441460	364.062194	540.844915	-414.623071	423.513313	623.233427	-388.157276	541.418243	384.656538	-365.770136	-65.603346	852.164373	-241.564101	21.157910	83.715738	-442.211609	21.193772	83.808747	-43.877940	
5	0.0250	428.369388	1238.643354	-69.135658	436.366631	1237.497726	-407.863894	405.822210	1305.521804	-242.857072	398.429501	1174.567552	-240.275701	499.535847	1027.004276	34.184897	707.006839	881.040438	-33.265637	491.021526	1009.754948	-544.192284	697.932731	880.252066	-464.550595	-60.983266	1124.145415	-228.776539	72.445535	1128.693663	-376.720048	87.168374	1121.684857	-83.125409	117.242119	1073.397666	-356.289627	129.640484	1065.779673	-104.631963	-28.824490	1155.887497	-168.694713	-33.108883	1163.972125	-277.376907	57.118592	972.761048	-40.810786	42.943554	1006.123426	-425.816702	150.371278	867.430313	-43.426839	223.999747	820.322486	-48.606494	260.272253	739.404782	-56.832256	249.046467	841.435543	-65.293594	307.004069	650.595620	-90.770239	291.729758	638.647326	-187.279679	231.362230	578.799354	-62.990235	195.553561	497.894561	-79.901920	124.815948	445.925890	-82.051192	215.852449	486.990511	-112.829026	58.610082	372.319027	-85.304297	67.488681	382.234057	-164.336158	-29.487166	362.870110	-128.232255	218.127325	270.640982	-123.227165	133.398188	281.691650	-60.963144	162.836618	937.550686	-428.743154	247.114193	925.271555	-423.843970	262.473228	957.421810	-410.876046	318.013234	869.221552	-425.035343	398.408245	808.037264	-406.826292	420.153315	800.814741	-308.840813	350.201882	448.758905	-406.703003	368.110121	459.071707	-337.182097	282.194777	411.603837	-369.646864	449.542149	367.240101	-433.527262	384.483718	708.793011	-427.297974	397.480413	622.928744	-417.402343	364.047980	540.887306	-414.579937	423.542100	623.252362	-388.065789	541.402226	384.730512	-365.798605	-65.622515	852.136123	-241.616111	21.101518	83.821810	-442.169092	21.180830	83.827783	-43.891627	
